<svg xmlns="http://www.w3.org/2000/svg" width="1036" height="6" viewBox="0 0 1036 6">
    <g fill="none" fill-rule="evenodd" >
        <path d="M0 .691C4.887.691 4.887 5 9.774 5 14.659 5 14.659.691 19.546.691 24.432.691 24.432 5 29.318 5S34.204.691 39.089.691C43.975.691 43.975 5 48.86 5 53.747 5 53.747.691 58.632.691 63.519.691 63.519 5 68.406 5 73.292 5 73.292.691 78.179.691 83.065.691 83.065 5 87.95 5 92.836 5 92.836.691 97.722.691c4.886 0 4.886 4.309 9.772 4.309S112.38.691 117.267.691 122.154 5 127.04 5c4.887 0 4.887-4.309 9.773-4.309S141.699 5 146.585 5 151.47.691 156.356.691C161.243.691 161.243 5 166.13 5c4.887 0 4.887-4.309 9.774-4.309S180.79 5 185.676 5c4.885 0 4.885-4.309 9.772-4.309C200.334.691 200.334 5 205.22 5s4.886-4.309 9.773-4.309S219.88 5 224.766 5c4.887 0 4.887-4.309 9.773-4.309 4.885 0 4.885 4.309 9.769 4.309 4.883 0 4.883-4.309 9.767-4.309 4.884 0 4.884 4.309 9.768 4.309 4.883 0 4.883-4.309 9.767-4.309 4.884 0 4.884 4.309 9.768 4.309 4.886 0 4.886-4.309 9.771-4.309 4.887 0 4.887 4.309 9.774 4.309 4.885 0 4.885-4.309 9.772-4.309C317.58.691 317.58 5 322.465 5c4.884 0 4.884-4.309 9.769-4.309 4.884 0 4.884 4.309 9.768 4.309 4.885 0 4.885-4.309 9.77-4.309S356.656 5 361.541 5c4.886 0 4.886-4.309 9.774-4.309 4.886 0 4.886 4.309 9.773 4.309 4.885 0 4.885-4.309 9.77-4.309S395.744 5 400.629 5c4.884 0 4.884-4.309 9.77-4.309 4.885 0 4.885 4.309 9.77 4.309 4.887 0 4.887-4.309 9.775-4.309C434.83.691 434.83 5 439.717 5c4.885 0 4.885-4.309 9.77-4.309 4.886 0 4.886 4.309 9.771 4.309 4.886 0 4.886-4.309 9.771-4.309 4.888 0 4.888 4.309 9.774 4.309 4.887 0 4.887-4.309 9.774-4.309 4.886 0 4.886 4.309 9.772 4.309 4.885 0 4.885-4.309 9.772-4.309 4.885 0 4.885 4.309 9.771 4.309 4.889 0 4.889-4.309 9.776-4.309S532.555 5 537.441 5c4.887 0 4.887-4.309 9.772-4.309 4.886 0 4.886 4.309 9.773 4.309 4.888 0 4.888-4.309 9.776-4.309 4.886 0 4.886 4.309 9.773 4.309s4.887-4.309 9.772-4.309c4.888 0 4.888 4.309 9.775 4.309 4.888 0 4.888-4.309 9.775-4.309C610.744.691 610.744 5 615.63 5c4.887 0 4.887-4.309 9.774-4.309S630.29 5 635.18 5c4.886 0 4.886-4.309 9.772-4.309C649.84.691 649.84 5 654.728 5s4.888-4.309 9.775-4.309C669.39.691 669.39 5 674.277 5c4.888 0 4.888-4.309 9.776-4.309C688.94.691 688.94 5 693.828 5c4.888 0 4.888-4.309 9.777-4.309 4.887 0 4.887 4.309 9.773 4.309 4.89 0 4.89-4.309 9.777-4.309C728.043.691 728.043 5 732.93 5c4.889 0 4.889-4.309 9.777-4.309 4.887 0 4.887 4.309 9.776 4.309 4.887 0 4.887-4.309 9.776-4.309 4.887 0 4.887 4.309 9.776 4.309 4.885 0 4.885-4.309 9.77-4.309C786.693.691 786.693 5 791.58 5c4.886 0 4.886-4.309 9.772-4.309C806.24.691 806.24 5 811.126 5c4.887 0 4.887-4.309 9.775-4.309 4.888 0 4.888 4.309 9.776 4.309 4.887 0 4.887-4.309 9.773-4.309C845.34.691 845.34 5 850.227 5c4.89 0 4.89-4.309 9.778-4.309 4.89 0 4.89 4.309 9.778 4.309 4.888 0 4.888-4.309 9.777-4.309 4.89 0 4.89 4.309 9.778 4.309 4.89 0 4.89-4.309 9.78-4.309S904.008 5 908.896 5c4.889 0 4.889-4.309 9.778-4.309 4.89 0 4.89 4.309 9.778 4.309 4.888 0 4.888-4.309 9.776-4.309 4.89 0 4.89 4.309 9.779 4.309 4.891 0 4.891-4.309 9.783-4.309 4.89 0 4.89 4.309 9.779 4.309 4.893 0 4.893-4.309 9.787-4.309C982.248.691 982.248 5 987.14 5M987.141 5c4.884 0 4.884-4 9.768-4 4.885 0 4.885 4 9.768 4 4.885 0 4.885-4 9.768-4 4.884 0 4.884 4 9.767 4 4.885 0 4.885-4 9.768-4"/>
    </g>
</svg>
